<svg width="1024" height="1024" viewBox="0 0 1024 1024" fill="none" xmlns="http://www.w3.org/2000/svg">
<path d="M980.228 589.704C1001.29 540.886 1010.53 485.581 995.217 431.108C996 430.239 996.703 429.3 997.315 428.303C1029.88 375.403 1064.67 170.988 891.295 64.2679C791.273 2.69983 680.475 7.41984 597.972 26.3741C550.577 5.76127 497.552 1.87138 447.642 15.3459C437.421 19.5019 427.622 23.8855 418.245 28.4967C417.449 27.7946 416.592 27.1638 415.685 26.6116C362.608 -5.86448 157.638 -40.5522 50.6056 132.322C-15.8375 239.695 -5.2399 359.521 17.1757 443.19C3.18455 488.268 1.94916 539.669 24.7369 594.29C4.85158 677.024 -1.35513 789.934 61.605 891.651C168.622 1064.54 373.593 1029.85 426.67 997.436C429.81 995.641 432.225 992.813 433.502 989.436C481.592 1009.49 528.076 1009.96 573.413 994.364C657.062 1015.84 774.722 1024.79 880.37 959.765C1053.74 853.045 1018.94 648.645 986.375 595.73C984.903 593.21 982.78 591.129 980.228 589.704ZM671.545 138.705C707.267 171.359 745.46 174.031 745.46 174.031C748.541 163.848 716.212 106.125 657.643 61.4626C659.95 61.1063 662.257 60.7501 664.594 60.4236C908.025 25.7062 970.419 225.476 975.674 271.726C976.418 278.153 976.805 285.307 976.909 292.936C957.56 244.4 921.123 185.148 865.277 154.661C764.631 99.7422 813.302 155.106 813.302 155.106C904.988 214.136 936.677 299.823 947.423 345.465C927.97 323.349 902.771 302.094 870.71 282.309C615.655 124.678 435.154 201.445 442.06 165.362C448.966 129.279 568.01 136.552 588.163 142.965C608.317 149.377 609.701 137.027 609.701 137.027C464.014 10.9376 348.111 193.831 348.111 193.831C213.111 412.525 271.145 577.592 278.468 595.878C285.791 614.165 337.112 684.817 337.112 684.817C235.408 661.068 228.07 590.698 228.07 590.698C185.01 399.73 303.205 102.162 435.764 64.3866C568.323 26.6116 635.823 106.11 671.545 138.705ZM363.442 364.093C391.558 336.041 427.385 316.935 466.392 309.19C505.398 301.445 545.832 305.411 582.578 320.584C619.325 335.757 650.734 361.457 672.832 394.433C694.93 427.41 706.725 466.18 706.725 505.842C706.725 545.503 694.93 584.274 672.832 617.25C650.734 650.226 619.325 675.926 582.578 691.1C545.832 706.273 505.398 710.238 466.392 702.494C427.385 694.749 391.558 675.643 363.442 647.591C325.743 610 304.559 559.018 304.548 505.854C304.537 452.691 325.699 401.699 363.382 364.093H363.442ZM46.7506 358.393C11.9067 115.639 212.263 53.4326 258.642 48.104C268.951 47.0533 279.316 46.6468 289.676 46.8869C239.888 68.0528 175.633 110.177 148.841 173.778C103.891 279.934 155.375 227.094 155.375 227.094C207.47 125.984 297.058 89.9608 341.339 77.9084C250.545 153.399 217.309 258.056 194.164 359.566C163.621 493.582 191.187 558.757 177.062 586.171C162.937 613.586 123.925 523.431 137.366 461.299C150.806 399.166 135.535 404.643 135.535 404.643C-0.000669989 586.127 208.825 711.608 421.401 739.631C633.977 767.654 686.518 672.631 686.518 672.631C681.026 785.317 522.792 844.407 261.976 747.557C1.16031 650.708 51.841 486.843 65.2814 442.983C78.7219 399.122 227.162 246.226 162.401 273.017C133.228 285.099 84.5714 322.31 49.4744 375.745C48.5218 370.06 47.6288 364.286 46.7506 358.393ZM357.22 891.31C316.914 836.495 266.203 844.407 266.203 844.407C309.933 901.537 352.204 942.087 393.27 968.211C353.216 974.46 302.253 979.61 269.597 975.87C228.829 971.209 69.1067 922.554 54.7137 745.969C75.2836 793.911 112.583 849.869 168.95 876.274C273.72 925.256 223.084 871.628 223.084 871.628C126.649 817.096 94.0675 729.36 83.3509 683.214C203.094 811.307 410.937 834.803 452.003 835.887C498.427 837.104 601.663 819.426 576.018 854.767C550.372 890.108 395.205 873.039 395.205 873.039C395.205 873.039 478.884 982.074 601.663 892.527C724.443 802.98 741.575 626.336 750.103 521.56C758.632 416.785 686.578 332.715 686.578 332.715C759.272 345.51 778.86 411.382 778.86 411.382C822.232 581.332 757.486 820.124 637.758 915.148C518.029 1010.17 397.586 946.139 357.22 891.31ZM964.719 752.262C959.881 794.253 907.98 962.838 716.153 967.483C768.634 950.859 841.507 911.66 871.96 844.822C920.081 739.29 866.2 789.726 866.2 789.726C813.882 883.903 728.447 916.291 680.535 927.319C685 923.356 689.346 919.289 693.737 915.073C825.075 788.909 826.906 562.987 829.957 524.603C833.008 486.22 811.635 427.145 843.353 430.797C875.071 434.448 874.818 576.984 874.357 592.064C873.895 607.144 879.403 608.064 879.403 608.064C879.403 608.064 963.692 518.518 883.064 406.202C802.436 293.886 587.568 263.206 489.972 261.826C392.377 260.445 333.688 328.069 333.688 328.069C356.803 226.574 430.153 223.828 430.153 223.828C806.291 204.191 934.563 360.382 955.565 466.434C976.567 572.486 902.875 639.576 870.353 677.499C837.831 715.423 852.492 739.171 852.492 739.171C885.044 722.636 926.526 683.54 957.664 632.941C963.677 672.23 968.38 720.766 964.763 752.262H964.719Z" fill="#00FF85"/>
</svg>
