<svg width="3596" height="660" viewBox="0 0 3596 660" fill="none" xmlns="http://www.w3.org/2000/svg">
<path d="M806.949 370.178C806.949 347.229 811.262 326.558 819.889 308.166C828.515 289.611 840.396 273.824 855.533 260.803C870.833 247.619 888.899 237.528 909.732 230.529C930.729 223.368 953.434 219.787 977.848 219.787C988.264 219.787 998.518 220.438 1008.61 221.74C1018.86 223.042 1028.63 224.833 1037.91 227.111C1047.35 229.39 1056.14 232.157 1064.27 235.412C1072.57 238.505 1079.9 241.923 1086.25 245.666V107.971H1158.51V513H1086.25V485.9C1079.9 490.295 1072.41 494.445 1063.79 498.352C1055.16 502.258 1045.88 505.676 1035.95 508.605C1026.02 511.535 1015.69 513.814 1004.95 515.441C994.368 517.232 983.87 518.127 973.453 518.127C949.039 518.127 926.578 514.546 906.07 507.385C885.725 500.223 868.229 490.132 853.58 477.111C838.932 464.09 827.457 448.547 819.156 430.48C811.018 412.251 806.949 392.15 806.949 370.178ZM882.877 370.178C882.877 381.734 885.156 392.639 889.713 402.893C894.433 413.146 901.106 422.18 909.732 429.992C918.521 437.642 929.02 443.745 941.227 448.303C953.596 452.697 967.431 454.895 982.73 454.895C992.496 454.895 1002.26 453.999 1012.03 452.209C1021.79 450.256 1031.15 447.57 1040.1 444.152C1049.22 440.734 1057.68 436.584 1065.49 431.701C1073.47 426.818 1080.39 421.366 1086.25 415.344V315.49C1078.92 309.631 1071.19 304.667 1063.05 300.598C1054.91 296.529 1046.61 293.192 1038.15 290.588C1029.69 287.984 1021.14 286.112 1012.52 284.973C1003.89 283.671 995.507 283.02 987.369 283.02C970.768 283.02 955.956 285.298 942.936 289.855C930.077 294.25 919.173 300.354 910.221 308.166C901.432 315.979 894.677 325.174 889.957 335.754C885.237 346.333 882.877 357.808 882.877 370.178ZM1208.46 367.98C1208.46 348.449 1212.45 329.813 1220.43 312.072C1228.4 294.169 1239.88 278.381 1254.85 264.709C1269.82 251.037 1288.13 240.132 1309.78 231.994C1331.59 223.856 1356.33 219.787 1384 219.787C1411.51 219.787 1436.25 223.938 1458.22 232.238C1480.35 240.376 1499.07 251.607 1514.37 265.93C1529.83 280.253 1541.63 297.098 1549.77 316.467C1558.07 335.835 1562.22 356.587 1562.22 378.723C1562.22 381.49 1562.14 384.501 1561.98 387.756C1561.98 390.848 1561.82 393.697 1561.49 396.301H1289.03C1292.12 404.927 1297.09 412.821 1303.92 419.982C1310.92 427.144 1319.63 433.329 1330.04 438.537C1340.46 443.745 1352.51 447.814 1366.18 450.744C1379.85 453.511 1394.99 454.895 1411.59 454.895C1428.19 454.895 1444.71 453.186 1461.15 449.768C1477.59 446.187 1493.29 441.711 1508.27 436.34L1532.68 491.516C1523.24 495.91 1513.64 499.816 1503.87 503.234C1494.27 506.49 1484.18 509.257 1473.6 511.535C1463.18 513.651 1452.2 515.279 1440.64 516.418C1429.25 517.557 1417.2 518.127 1404.51 518.127C1372.12 518.127 1343.72 514.221 1319.3 506.408C1294.89 498.596 1274.46 487.935 1258.02 474.426C1241.58 460.917 1229.21 445.048 1220.91 426.818C1212.61 408.589 1208.46 388.977 1208.46 367.98ZM1485.56 339.904C1482.96 331.929 1478.89 324.523 1473.36 317.688C1467.98 310.689 1461.23 304.667 1453.09 299.621C1444.95 294.413 1435.51 290.344 1424.77 287.414C1414.03 284.484 1402.23 283.02 1389.37 283.02C1375.7 283.02 1363.25 284.566 1352.02 287.658C1340.79 290.751 1330.94 294.901 1322.48 300.109C1314.01 305.318 1306.93 311.34 1301.24 318.176C1295.7 325.012 1291.63 332.255 1289.03 339.904H1485.56ZM1623.65 131.408H1701.04L1938.83 255.92V131.408H2016.23V513H1938.83V337.951L1701.04 214.172V513H1623.65V131.408ZM2072.77 368.957C2072.77 348.286 2076.92 328.918 2085.22 310.852C2093.68 292.785 2105.65 276.997 2121.11 263.488C2136.73 249.979 2155.53 239.318 2177.51 231.506C2199.64 223.693 2224.46 219.787 2251.97 219.787C2279.48 219.787 2304.21 223.693 2326.19 231.506C2348.32 239.318 2367.12 249.979 2382.58 263.488C2398.21 276.997 2410.17 292.785 2418.47 310.852C2426.94 328.918 2431.17 348.286 2431.17 368.957C2431.17 389.628 2426.94 408.996 2418.47 427.062C2410.17 445.129 2398.21 460.917 2382.58 474.426C2367.12 487.935 2348.32 498.596 2326.19 506.408C2304.21 514.221 2279.48 518.127 2251.97 518.127C2224.46 518.127 2199.64 514.221 2177.51 506.408C2155.53 498.596 2136.73 487.935 2121.11 474.426C2105.65 460.917 2093.68 445.129 2085.22 427.062C2076.92 408.996 2072.77 389.628 2072.77 368.957ZM2148.7 368.957C2148.7 380.513 2150.98 391.499 2155.53 401.916C2160.25 412.17 2167.01 421.285 2175.8 429.26C2184.75 437.072 2195.57 443.339 2208.27 448.059C2221.13 452.616 2235.69 454.895 2251.97 454.895C2268.24 454.895 2282.73 452.616 2295.43 448.059C2308.28 443.339 2319.11 437.072 2327.9 429.26C2336.85 421.285 2343.6 412.17 2348.16 401.916C2352.88 391.499 2355.24 380.513 2355.24 368.957C2355.24 357.401 2352.88 346.415 2348.16 335.998C2343.6 325.581 2336.85 316.467 2327.9 308.654C2319.11 300.679 2308.28 294.413 2295.43 289.855C2282.73 285.135 2268.24 282.775 2251.97 282.775C2235.69 282.775 2221.13 285.135 2208.27 289.855C2195.57 294.413 2184.75 300.679 2175.8 308.654C2167.01 316.467 2160.25 325.581 2155.53 335.998C2150.98 346.415 2148.7 357.401 2148.7 368.957ZM2456.95 370.178C2456.95 347.229 2461.26 326.558 2469.89 308.166C2478.51 289.611 2490.4 273.824 2505.53 260.803C2520.83 247.619 2538.9 237.528 2559.73 230.529C2580.73 223.368 2603.43 219.787 2627.85 219.787C2638.26 219.787 2648.52 220.438 2658.61 221.74C2668.86 223.042 2678.63 224.833 2687.91 227.111C2697.35 229.39 2706.14 232.157 2714.27 235.412C2722.57 238.505 2729.9 241.923 2736.25 245.666V107.971H2808.51V513H2736.25V485.9C2729.9 490.295 2722.41 494.445 2713.79 498.352C2705.16 502.258 2695.88 505.676 2685.95 508.605C2676.02 511.535 2665.69 513.814 2654.95 515.441C2644.37 517.232 2633.87 518.127 2623.45 518.127C2599.04 518.127 2576.58 514.546 2556.07 507.385C2535.73 500.223 2518.23 490.132 2503.58 477.111C2488.93 464.09 2477.46 448.547 2469.16 430.48C2461.02 412.251 2456.95 392.15 2456.95 370.178ZM2532.88 370.178C2532.88 381.734 2535.16 392.639 2539.71 402.893C2544.43 413.146 2551.11 422.18 2559.73 429.992C2568.52 437.642 2579.02 443.745 2591.23 448.303C2603.6 452.697 2617.43 454.895 2632.73 454.895C2642.5 454.895 2652.26 453.999 2662.03 452.209C2671.79 450.256 2681.15 447.57 2690.1 444.152C2699.22 440.734 2707.68 436.584 2715.49 431.701C2723.47 426.818 2730.39 421.366 2736.25 415.344V315.49C2728.92 309.631 2721.19 304.667 2713.05 300.598C2704.91 296.529 2696.61 293.192 2688.15 290.588C2679.69 287.984 2671.14 286.112 2662.52 284.973C2653.89 283.671 2645.51 283.02 2637.37 283.02C2620.77 283.02 2605.96 285.298 2592.94 289.855C2580.08 294.25 2569.17 300.354 2560.22 308.166C2551.43 315.979 2544.68 325.174 2539.96 335.754C2535.24 346.333 2532.88 357.808 2532.88 370.178ZM2858.46 367.98C2858.46 348.449 2862.45 329.813 2870.43 312.072C2878.4 294.169 2889.88 278.381 2904.85 264.709C2919.82 251.037 2938.13 240.132 2959.78 231.994C2981.59 223.856 3006.33 219.787 3034 219.787C3061.51 219.787 3086.25 223.938 3108.22 232.238C3130.35 240.376 3149.07 251.607 3164.37 265.93C3179.83 280.253 3191.63 297.098 3199.77 316.467C3208.07 335.835 3212.22 356.587 3212.22 378.723C3212.22 381.49 3212.14 384.501 3211.98 387.756C3211.98 390.848 3211.82 393.697 3211.49 396.301H2939.03C2942.12 404.927 2947.09 412.821 2953.92 419.982C2960.92 427.144 2969.63 433.329 2980.04 438.537C2990.46 443.745 3002.51 447.814 3016.18 450.744C3029.85 453.511 3044.99 454.895 3061.59 454.895C3078.19 454.895 3094.71 453.186 3111.15 449.768C3127.59 446.187 3143.29 441.711 3158.27 436.34L3182.68 491.516C3173.24 495.91 3163.64 499.816 3153.87 503.234C3144.27 506.49 3134.18 509.257 3123.6 511.535C3113.18 513.651 3102.2 515.279 3090.64 516.418C3079.25 517.557 3067.2 518.127 3054.51 518.127C3022.12 518.127 2993.72 514.221 2969.3 506.408C2944.89 498.596 2924.46 487.935 2908.02 474.426C2891.58 460.917 2879.21 445.048 2870.91 426.818C2862.61 408.589 2858.46 388.977 2858.46 367.98ZM3135.56 339.904C3132.96 331.929 3128.89 324.523 3123.36 317.688C3117.98 310.689 3111.23 304.667 3103.09 299.621C3094.95 294.413 3085.51 290.344 3074.77 287.414C3064.03 284.484 3052.23 283.02 3039.37 283.02C3025.7 283.02 3013.25 284.566 3002.02 287.658C2990.79 290.751 2980.94 294.901 2972.48 300.109C2964.01 305.318 2956.93 311.34 2951.24 318.176C2945.7 325.012 2941.63 332.255 2939.03 339.904H3135.56ZM3276.58 424.621C3296.11 436.34 3317.59 444.966 3341.03 450.5C3364.47 456.034 3388.48 458.801 3413.05 458.801C3429.65 458.801 3443.49 457.661 3454.56 455.383C3465.62 453.104 3474.49 450.174 3481.17 446.594C3487.84 443.013 3492.56 438.944 3495.33 434.387C3498.1 429.829 3499.48 425.191 3499.48 420.471C3499.48 413.635 3496.47 407.775 3490.45 402.893C3484.59 398.01 3474.82 395.568 3461.15 395.568C3454.8 395.568 3447.96 395.975 3440.64 396.789C3433.32 397.603 3425.59 398.498 3417.45 399.475C3409.47 400.288 3401.09 401.102 3392.3 401.916C3383.67 402.73 3374.89 403.137 3365.93 403.137C3346.4 403.137 3329.72 401.021 3315.88 396.789C3302.21 392.557 3291.06 386.779 3282.44 379.455C3273.81 372.131 3267.54 363.505 3263.64 353.576C3259.73 343.485 3257.78 332.661 3257.78 321.105C3257.78 306.457 3261.2 292.948 3268.03 280.578C3274.87 268.208 3284.63 257.548 3297.33 248.596C3310.03 239.481 3325.32 232.401 3343.23 227.355C3361.29 222.31 3381.4 219.787 3403.53 219.787C3415.09 219.787 3427.13 220.52 3439.66 221.984C3452.36 223.286 3464.81 225.077 3477.02 227.355C3489.22 229.634 3500.94 232.32 3512.17 235.412C3523.4 238.342 3533.33 241.516 3541.96 244.934L3519.25 301.086C3500.86 294.25 3482.47 288.879 3464.08 284.973C3445.85 280.904 3427.05 278.869 3407.68 278.869C3394.17 278.869 3382.7 279.927 3373.26 282.043C3363.98 283.996 3356.41 286.682 3350.55 290.1C3344.69 293.355 3340.38 297.18 3337.61 301.574C3335.01 305.806 3333.71 310.282 3333.71 315.002C3333.71 318.42 3334.36 321.512 3335.66 324.279C3337.12 327.046 3339.4 329.488 3342.5 331.604C3345.75 333.557 3349.9 335.103 3354.95 336.242C3360.16 337.219 3366.5 337.707 3373.99 337.707C3380.83 337.707 3388.07 337.3 3395.72 336.486C3403.37 335.673 3411.34 334.859 3419.64 334.045C3427.95 333.068 3436.49 332.173 3445.28 331.359C3454.23 330.546 3463.35 330.139 3472.62 330.139C3489.88 330.139 3504.93 332.173 3517.79 336.242C3530.81 340.311 3541.55 346.008 3550.02 353.332C3558.48 360.656 3564.83 369.283 3569.06 379.211C3573.29 389.139 3575.41 399.963 3575.41 411.682C3575.41 426.818 3571.91 440.897 3564.91 453.918C3557.91 466.939 3547.49 478.251 3533.66 487.854C3519.82 497.294 3502.57 504.699 3481.9 510.07C3461.39 515.441 3437.63 518.127 3410.61 518.127C3394.01 518.127 3377.98 517.069 3362.52 514.953C3347.05 513 3332.32 510.314 3318.33 506.896C3304.33 503.316 3291.15 499.165 3278.78 494.445C3266.57 489.725 3255.42 484.68 3245.33 479.309L3276.58 424.621Z" fill="#0D0040"/>
<g clip-path="url(#clip0_6020_752)">
<path d="M632.454 380.083C646.042 348.618 652.006 312.972 642.124 277.863C642.63 277.302 643.083 276.697 643.478 276.055C664.491 241.959 686.934 110.207 575.073 41.4226C510.538 1.74012 439.05 4.78232 385.818 16.9989C355.238 3.71332 321.026 1.20616 288.823 9.89092C282.229 12.5696 275.906 15.3949 269.856 18.367C269.343 17.9145 268.79 17.5079 268.205 17.152C233.959 -3.77984 101.71 -26.1371 32.6513 85.2858C-10.2185 154.491 -3.38084 231.723 11.0819 285.65C2.05471 314.704 1.25762 347.833 15.9605 383.039C3.13029 436.363 -0.874342 509.137 39.7482 574.697C108.797 686.13 241.046 663.772 275.292 642.879C277.318 641.722 278.876 639.899 279.7 637.722C310.729 650.647 340.72 650.953 369.972 640.898C423.944 654.741 499.859 660.51 568.024 618.599C679.885 549.814 657.432 418.072 636.42 383.967C635.47 382.342 634.1 381.001 632.454 380.083ZM433.288 89.3995C456.336 110.446 480.978 112.168 480.978 112.168C482.966 105.605 462.108 68.4006 424.318 39.6145C425.807 39.3849 427.295 39.1553 428.803 38.9449C585.867 16.5685 626.125 145.326 629.515 175.136C629.995 179.278 630.245 183.889 630.312 188.807C617.827 157.524 594.318 119.334 558.286 99.6836C493.348 64.287 524.751 99.9706 524.751 99.9706C583.908 138.017 604.354 193.246 611.288 222.663C598.736 208.409 582.477 194.709 561.791 181.957C397.227 80.359 280.766 129.838 285.222 106.581C289.678 83.3246 366.486 88.0123 379.489 92.1451C392.492 96.2779 393.385 88.3184 393.385 88.3184C299.387 7.04962 224.605 124.93 224.605 124.93C137.502 265.885 174.945 372.276 179.67 384.062C184.395 395.848 217.508 441.386 217.508 441.386C151.888 426.079 147.153 380.723 147.153 380.723C119.37 257.639 195.631 65.8463 281.16 41.4992C366.688 17.152 410.239 68.3911 433.288 89.3995ZM234.496 234.669C252.637 216.589 275.753 204.274 300.921 199.283C326.088 194.291 352.177 196.847 375.886 206.626C399.595 216.406 419.86 232.971 434.118 254.225C448.376 275.479 455.986 300.468 455.986 326.031C455.986 351.594 448.376 376.583 434.118 397.837C419.86 419.091 399.595 435.656 375.886 445.435C352.177 455.215 326.088 457.771 300.921 452.779C275.753 447.787 252.637 435.473 234.496 417.392C210.173 393.164 196.505 360.304 196.498 326.039C196.49 291.773 210.145 258.908 234.458 234.669H234.496ZM30.164 230.996C7.68232 74.5329 136.954 34.439 166.879 31.0045C173.53 30.3273 180.217 30.0653 186.902 30.2201C154.778 43.8621 113.32 71.0123 96.034 112.005C67.0316 180.426 100.25 146.369 100.25 146.369C133.862 81.2008 191.665 57.9825 220.235 50.2144C161.654 98.8705 140.21 166.325 125.276 231.751C105.57 318.129 123.356 360.136 114.242 377.806C105.128 395.475 79.9578 337.367 88.6297 297.321C97.3016 257.275 87.4485 260.805 87.4485 260.805C-0.000432284 377.777 134.736 458.654 271.892 476.715C409.049 494.777 442.949 433.531 442.949 433.531C439.405 506.162 337.311 544.246 169.03 481.824C0.748642 419.402 33.4484 313.786 42.1203 285.516C50.7922 257.247 146.567 158.7 104.783 175.968C85.96 183.755 54.5663 207.739 31.9214 242.179C31.3068 238.515 30.7306 234.794 30.164 230.996ZM230.482 574.477C204.476 539.147 171.757 544.247 171.757 544.247C199.972 581.069 227.246 607.205 253.742 624.042C227.899 628.07 195.017 631.389 173.947 628.978C147.643 625.974 44.5884 594.615 35.3018 480.8C48.5738 511.701 72.64 547.767 109.008 564.786C176.607 596.356 143.936 561.792 143.936 561.792C81.7153 526.644 60.6933 470.095 53.7788 440.352C131.039 522.913 265.141 538.057 291.637 538.755C321.59 539.54 388.2 528.146 371.653 550.924C355.106 573.702 254.99 562.701 254.99 562.701C254.99 562.701 308.981 632.977 388.2 575.262C467.418 517.546 478.472 403.693 483.975 336.162C489.477 268.631 442.987 214.445 442.987 214.445C489.89 222.692 502.529 265.149 502.529 265.149C530.513 374.687 488.738 528.595 411.488 589.841C334.238 651.087 256.527 609.816 230.482 574.477ZM622.447 484.857C619.326 511.921 585.838 620.579 462.069 623.573C495.931 612.859 542.949 587.593 562.598 544.514C593.646 476.495 558.882 509.003 558.882 509.003C525.125 569.703 470.002 590.578 439.088 597.686C441.969 595.132 444.773 592.51 447.606 589.793C532.347 508.477 533.528 362.863 535.497 338.123C537.466 313.384 523.675 275.308 544.14 277.662C564.605 280.015 564.442 371.884 564.144 381.604C563.847 391.323 567.4 391.916 567.4 391.916C567.4 391.916 621.784 334.201 569.762 261.81C517.74 189.419 379.105 169.645 316.135 168.755C253.166 167.865 215.299 211.451 215.299 211.451C230.213 146.034 277.539 144.264 277.539 144.264C520.228 131.608 602.99 232.278 616.541 300.631C630.091 368.985 582.544 412.227 561.561 436.669C540.577 461.112 550.037 476.419 550.037 476.419C571.039 465.762 597.804 440.563 617.895 407.95C621.774 433.273 624.809 464.556 622.476 484.857H622.447Z" fill="#0D0040"/>
</g>
<defs>
<clipPath id="clip0_6020_752">
<rect width="660.696" height="660" fill="white"/>
</clipPath>
</defs>
</svg>
